<?xml version="1.0" encoding="UTF-8"?>
<svg width="39.7" height="39.705" fill="#ff9900" version="1.1" viewBox="0 0 39.7 39.705" xml:space="preserve" xmlns="http://www.w3.org/2000/svg" xmlns:cc="http://creativecommons.org/ns#" xmlns:dc="http://purl.org/dc/elements/1.1/" xmlns:rdf="http://www.w3.org/1999/02/22-rdf-syntax-ns#"><metadata><rdf:RDF><cc:Work rdf:about=""><dc:format>image/svg+xml</dc:format><dc:type rdf:resource="http://purl.org/dc/dcmitype/StillImage"/><dc:title/></cc:Work></rdf:RDF></metadata>
<g transform="translate(0,-15.816)">
	
		<path d="m36.583 37.243c0.129-1.356 0.09-2.707-0.106-4.026l3.049-1.359c-0.288-1.477-0.741-2.934-1.369-4.344-0.628-1.409-1.408-2.72-2.312-3.923l-3.051 1.358c-0.849-1.027-1.827-1.959-2.921-2.771l1.196-3.116c-1.249-0.84-2.599-1.55-4.04-2.103-1.435-0.551-2.909-0.932-4.408-1.143l-1.197 3.119c-1.356-0.129-2.707-0.09-4.026 0.106l-1.351-3.034c-3.018 0.593-5.838 1.873-8.259 3.702l1.342 3.014c-1.029 0.849-1.961 1.828-2.773 2.921l-3.108-1.192c-0.848 1.246-1.559 2.597-2.113 4.037-0.549 1.44-0.925 2.918-1.136 4.407l3.116 1.196c-0.129 1.356-0.09 2.707 0.106 4.026l-3.049 1.358c0.288 1.478 0.741 2.934 1.369 4.344 0.629 1.41 1.408 2.72 2.313 3.923l3.049-1.358c0.849 1.028 1.827 1.96 2.922 2.772l-1.196 3.118c1.249 0.841 2.599 1.55 4.04 2.103 1.435 0.551 2.909 0.932 4.408 1.143l1.197-3.119c1.356 0.128 2.707 0.089 4.026-0.107l1.351 3.033c3.018-0.593 5.84-1.873 8.26-3.702l-1.343-3.014c1.028-0.849 1.961-1.827 2.773-2.921l3.106 1.192c0.848-1.246 1.559-2.597 2.113-4.036 0.553-1.44 0.928-2.919 1.139-4.409zm-8.283 1.667c-1.791 4.668-7.026 6.998-11.695 5.207-4.663-1.79-6.996-7.024-5.206-11.691 1.791-4.667 7.026-6.997 11.692-5.208 4.667 1.79 6.999 7.026 5.209 11.692z"/>
	
</g>
















</svg>
