<?xml version="1.0" encoding="UTF-8"?>
<svg width="23.731" height="24.564" fill="#ff9900" version="1.1" viewBox="0 0 23.731 24.564" xml:space="preserve" xmlns="http://www.w3.org/2000/svg" xmlns:cc="http://creativecommons.org/ns#" xmlns:dc="http://purl.org/dc/elements/1.1/" xmlns:rdf="http://www.w3.org/1999/02/22-rdf-syntax-ns#"><metadata><rdf:RDF><cc:Work rdf:about=""><dc:format>image/svg+xml</dc:format><dc:type rdf:resource="http://purl.org/dc/dcmitype/StillImage"/><dc:title/></cc:Work></rdf:RDF></metadata>

<g transform="translate(-31.903 -.114)">
	
		<path d="m53.465 12.395c0-0.604-0.062-1.195-0.168-1.769l2.337-1.35c-0.566-2.152-1.69-4.079-3.227-5.601l-2.343 1.353c-0.894-0.766-1.93-1.366-3.063-1.766v-2.703c-1.032-0.283-2.113-0.445-3.232-0.445s-2.199 0.164-3.232 0.445v2.704c-1.133 0.4-2.168 1.001-3.063 1.766l-2.344-1.353c-1.535 1.522-2.66 3.449-3.227 5.601l2.338 1.35c-0.106 0.575-0.169 1.164-0.169 1.769s0.063 1.195 0.169 1.769l-2.338 1.35c0.567 2.152 1.692 4.08 3.227 5.601l2.343-1.353c0.895 0.766 1.93 1.366 3.063 1.766v2.704c1.033 0.282 2.113 0.445 3.232 0.445s2.201-0.164 3.232-0.445v-2.704c1.133-0.4 2.169-1.001 3.063-1.766l2.343 1.353c1.537-1.522 2.661-3.449 3.227-5.601l-2.337-1.35c0.107-0.576 0.169-1.165 0.169-1.77zm-9.695 4.526c-2.5 0-4.527-2.026-4.527-4.525s2.027-4.526 4.527-4.526c2.497 0 4.524 2.026 4.524 4.525s-2.027 4.526-4.524 4.526z"/>
	
</g>















</svg>
